<?xml version="1.0" encoding="UTF-8"?>
<!DOCTYPE svg PUBLIC "-//W3C//DTD SVG 1.1//EN" "http://www.w3.org/Graphics/SVG/1.1/DTD/svg11.dtd">
<!-- Creator: CorelDRAW 2017 -->
<svg xmlns="http://www.w3.org/2000/svg" xml:space="preserve" width="214px" height="213px" version="1.1" style="shape-rendering:geometricPrecision; text-rendering:geometricPrecision; image-rendering:optimizeQuality; fill-rule:evenodd; clip-rule:evenodd"
viewBox="0 0 709.97 709.95"
 xmlns:xlink="http://www.w3.org/1999/xlink">
 <defs>
  <style type="text/css">
   <![CDATA[
    .fil0 {fill:#BF272F;fill-rule:nonzero}
    .fil1 {fill:#585357;fill-rule:nonzero}
   ]]>
  </style>
 </defs>
 <g id="Layer_x0020_1">
  <metadata id="CorelCorpID_0Corel-Layer"/>
  <g id="_1625202066624">
   <g>
    <g>
     <path class="fil0" d="M254.87 367.64l101.44 -109.27 0 -1.31 -53.48 0 -86.77 96.54 0 -325.38c-14.9,6.34 -29.28,13.67 -43.05,21.94l0 435.22 43.05 0 0 -101.11 95.56 101.11 53.16 0 0 -2.61 -109.91 -115.13z"/>
    </g>
   </g>
   <g>
    <g>
     <path class="fil1" d="M565.18 298.81l0 -41.42 -164.06 0 0 449.41c14.67,-2.01 29.03,-4.95 43.05,-8.76l0 -297.15 114.49 0 0 -39.77 -114.49 0 0 -62.31 121.01 0z"/>
    </g>
   </g>
   <g>
    <path class="fil1" d="M354.99 0c-44.38,0 -86.84,8.14 -126.03,23.03l0 43.03c38.61,-16.86 81.22,-26.22 126.03,-26.22 174.04,0 315.11,141.08 315.11,315.13 0,135.81 -95.33,261.28 -225.93,301.61 -13.98,4.33 -28.35,7.69 -43.05,9.94l0 40.28c14.67,-2.01 29.03,-4.95 43.05,-8.76 152.88,-41.59 265.8,-186.19 265.8,-343.07 0,-196.06 -158.92,-354.97 -354.98,-354.97z"/>
   </g>
   <g>
    <path class="fil0" d="M39.88 354.97c0,-106.26 52.58,-200.23 133.13,-257.32 13.58,-9.62 27.98,-18.19 43.05,-25.61l0 -43.82c-14.9,6.34 -29.28,13.67 -43.05,21.94 -103.64,61.95 -173.01,175.26 -173.01,304.81 0,196.05 158.93,354.98 354.99,354.98 11.2,0 22.28,-0.56 33.23,-1.63l0 -40.08c-10.91,1.22 -22.01,1.84 -33.23,1.84 -174.04,0 -315.11,-141.1 -315.11,-315.11z"/>
   </g>
  </g>
 </g>
</svg>
